<svg width="60" height="60" viewBox="0 0 60 60" fill="none" xmlns="http://www.w3.org/2000/svg">
<g clip-path="url(#clip0)">
<path d="M60.0001 36.4442V14.8071C60.0006 14.7432 59.9952 14.6789 59.9865 14.6145C59.9849 14.6022 59.9831 14.5898 59.9811 14.5776C59.9713 14.5185 59.9589 14.4598 59.9412 14.4013C59.9408 14.4 59.9402 14.3988 59.9398 14.3976C59.9268 14.3554 59.9118 14.3136 59.8945 14.272C59.8894 14.2601 59.8832 14.2492 59.8779 14.2374C59.8713 14.2227 59.8642 14.2084 59.857 14.1938C59.8339 14.1473 59.8088 14.1023 59.7811 14.0596C59.7773 14.0536 59.7741 14.0475 59.7701 14.0417C59.7366 13.9916 59.6998 13.9447 59.6607 13.9003C59.6534 13.8921 59.6458 13.8843 59.6383 13.8762C59.6021 13.837 59.5639 13.8 59.5237 13.7658C59.5174 13.7603 59.5114 13.7546 59.5049 13.7491C59.4594 13.7118 59.4115 13.678 59.3619 13.647C59.3504 13.6399 59.3386 13.6332 59.3268 13.6264C59.2808 13.5995 59.2334 13.5751 59.1846 13.5538C59.1789 13.5513 59.1739 13.5478 59.1681 13.5454L27.135 0.105247C27.132 0.104025 27.129 0.103211 27.126 0.101989C27.1136 0.0968304 27.1005 0.0928938 27.0878 0.0881427C26.8913 0.0141608 26.6881 -0.0123097 26.491 0.00520155C26.4872 0.00547304 26.4836 0.0053373 26.4798 0.00574454C26.39 0.0144323 26.3018 0.0319436 26.2161 0.0578712C26.211 0.0595001 26.2058 0.0616721 26.2007 0.0634368C26.1632 0.0752467 26.126 0.0884141 26.0898 0.103346C26.0881 0.104025 26.0864 0.104432 26.0846 0.105247L16.6882 4.0476C16.1841 4.25922 15.856 4.75253 15.856 5.29945C15.856 5.84637 16.1841 6.33968 16.6882 6.5513L25.2523 10.1446V22.1115L0.832341 32.3573C0.815237 32.3644 0.79949 32.3733 0.782929 32.381C0.766775 32.3886 0.750621 32.3959 0.734739 32.4042C0.696187 32.424 0.659128 32.4456 0.623291 32.4687C0.61759 32.4724 0.611617 32.4749 0.605915 32.4787C0.604558 32.4797 0.603472 32.4808 0.602114 32.4816C0.557047 32.5117 0.514286 32.5442 0.473834 32.5789C0.469626 32.5825 0.465961 32.5864 0.461888 32.5901C0.427273 32.6206 0.394422 32.6526 0.363336 32.6862C0.354106 32.6961 0.345418 32.7063 0.336458 32.7164C0.311074 32.7455 0.287047 32.7756 0.264377 32.8066C0.255825 32.8181 0.247273 32.8295 0.239128 32.8413C0.214694 32.877 0.19216 32.9137 0.171255 32.9513C0.167454 32.9582 0.162974 32.9647 0.159309 32.9716C0.135689 33.016 0.11492 33.0619 0.0963227 33.1085C0.0913001 33.1211 0.0873634 33.134 0.082748 33.1469C0.0699879 33.1822 0.0584494 33.2178 0.0485399 33.254C0.0443317 33.2697 0.0403951 33.2854 0.0367299 33.3012C0.0280422 33.3384 0.0209833 33.376 0.0154177 33.414C0.0135173 33.4267 0.0112096 33.4393 0.00971636 33.452C0.00347202 33.5054 -0.000193139 33.559 -5.73921e-05 33.6132V45.2021C-5.73921e-05 45.7489 0.328042 46.2424 0.832205 46.454L32.857 59.8907C32.9416 59.927 33.0305 59.9546 33.1228 59.9731C33.1313 59.9749 33.14 59.9756 33.1486 59.977C33.1837 59.9834 33.2189 59.9894 33.255 59.9929C33.2999 59.9974 33.3451 59.9997 33.3903 59.9997C33.4356 59.9997 33.4806 59.9974 33.5257 59.9929C33.5617 59.9894 33.597 59.9834 33.6321 59.977C33.6407 59.9756 33.6494 59.9749 33.6579 59.9731C33.7502 59.9546 33.8393 59.927 33.9237 59.8907L59.1678 49.2991C59.672 49.0875 60.0001 48.5942 60.0001 48.0472V36.4584C60.0001 36.4537 60.0001 36.4488 60.0001 36.4442ZM44.8274 40.7784L36.2549 37.1817C35.5632 36.8906 34.7679 37.2168 34.4779 37.9082C34.188 38.5996 34.5131 39.395 35.2045 39.6853L41.3189 42.2506L33.3906 45.5771L18.6815 39.4056L26.6097 36.0792L31.4319 38.1025C32.1234 38.3925 32.9189 38.0672 33.2089 37.3758C33.4989 36.6844 33.1737 35.889 32.4823 35.5987L27.9671 33.7043V25.0559L55.1338 36.4542L44.8274 40.7784ZM25.2522 33.7044L15.1727 37.9334L4.86632 33.6091L25.2522 25.0559V33.7044ZM26.6097 2.82914L55.134 14.7971L49.2462 17.2675L27.1438 7.99388C27.1398 7.99212 27.1356 7.99049 27.1313 7.98872L20.7219 5.29945L26.6097 2.82914ZM48.7111 19.9872C48.8816 20.0604 49.0638 20.0972 49.2462 20.0972C49.4246 20.0972 49.6031 20.062 49.7714 19.9916L57.2851 16.8389V34.4123L27.9671 22.1114V11.2837L48.7111 19.9872ZM2.71501 35.6507L32.033 47.9518V56.6004L2.71501 44.2994V35.6507ZM57.2851 47.1445L34.7479 56.6004V47.9518L57.2851 38.4958V47.1445Z" fill="#E5E5E5"/>
</g>
<defs>
<clipPath id="clip0">
<rect width="60" height="60" fill="white"/>
</clipPath>
</defs>
</svg>
