<svg width="19" height="23" viewBox="0 0 19 23" fill="none" xmlns="http://www.w3.org/2000/svg">
<path d="M18.8055 21.2833L17.2302 6.90831C17.144 6.12186 16.4824 5.52885 15.6913 5.52885H14.4939V5.08655C14.4939 2.28181 12.2121 0 9.40736 0C6.60266 0 4.32081 2.28181 4.32081 5.08655V5.52885H3.12337C2.33225 5.52885 1.67064 6.12191 1.58448 6.90831L0.00916273 21.2833C-0.0386341 21.72 0.102106 22.1582 0.395311 22.4853C0.688516 22.8124 1.10872 23 1.54805 23H17.2667C17.3465 23 17.4258 22.9936 17.5038 22.9815C17.5062 22.9811 17.5087 22.9809 17.511 22.9805C17.5244 22.9784 17.5376 22.9756 17.5508 22.973C17.5641 22.9705 17.5776 22.9684 17.5909 22.9655C17.6001 22.9636 17.6091 22.9611 17.6183 22.9589C17.6354 22.9549 17.6526 22.9511 17.6696 22.9465C17.843 22.8996 18.007 22.8225 18.1544 22.7194C18.162 22.7141 18.1698 22.7091 18.1773 22.7036C18.2648 22.64 18.346 22.567 18.4194 22.4852C18.7127 22.1581 18.8533 21.72 18.8055 21.2833ZM5.64771 5.08655C5.64771 3.01349 7.33426 1.32695 9.40731 1.32695C11.4804 1.32695 13.1669 3.01349 13.1669 5.08655V5.52885H5.64771V5.08655ZM2.90357 7.05282C2.91588 6.94047 3.01039 6.8558 3.12337 6.8558H4.32081V8.8462C4.32081 9.21262 4.61788 9.50965 4.98426 9.50965C5.35064 9.50965 5.64771 9.21258 5.64771 8.8462V6.8558H13.167V8.8462C13.167 9.21262 13.464 9.50965 13.8304 9.50965C14.1968 9.50965 14.4939 9.21258 14.4939 8.8462V6.8558H15.6913C15.8043 6.8558 15.8988 6.94056 15.9111 7.05287L17.1013 17.9135H1.71336L2.90357 7.05282ZM17.4313 21.5995C17.4067 21.627 17.3526 21.6731 17.2667 21.6731H1.54805C1.46216 21.6731 1.40803 21.627 1.38337 21.5995C1.35875 21.5721 1.31881 21.5132 1.3282 21.4278L1.568 19.2404H17.2468L17.4865 21.4278C17.4959 21.5132 17.456 21.5721 17.4313 21.5995Z" fill="white"/>
</svg>
