<svg width="26" height="31" viewBox="0 0 26 31" fill="none" xmlns="http://www.w3.org/2000/svg">
<path d="M9.69575 21.4062C9.61575 21.4062 9.54775 21.3782 9.49175 21.3222C9.43575 21.2662 9.40775 21.1982 9.40775 21.1182V14.9262L7.59575 16.3182C7.54775 16.3582 7.48775 16.3782 7.41575 16.3782C7.31975 16.3782 7.24375 16.3382 7.18775 16.2582L6.67175 15.5862C6.63175 15.5302 6.61175 15.4742 6.61175 15.4182C6.61175 15.3222 6.65575 15.2422 6.74375 15.1782L9.43175 13.0902C9.51975 13.0342 9.61975 13.0062 9.73175 13.0062H10.8118C10.8918 13.0062 10.9598 13.0342 11.0158 13.0902C11.0718 13.1462 11.0998 13.2142 11.0998 13.2942V21.1182C11.0998 21.1982 11.0718 21.2662 11.0158 21.3222C10.9598 21.3782 10.8918 21.4062 10.8118 21.4062H9.69575ZM15.6222 21.5383C14.9582 21.5383 14.3822 21.4263 13.8942 21.2022C13.4142 20.9782 13.0502 20.6822 12.8022 20.3142C12.5542 19.9462 12.4222 19.5502 12.4062 19.1262V19.1022C12.4062 19.0382 12.4302 18.9862 12.4782 18.9462C12.5342 18.8982 12.5942 18.8742 12.6582 18.8742H13.7982C13.9822 18.8742 14.0982 18.9542 14.1462 19.1142C14.2582 19.4662 14.4422 19.7262 14.6982 19.8942C14.9622 20.0622 15.2702 20.1462 15.6222 20.1462C16.0702 20.1462 16.4382 20.0102 16.7262 19.7382C17.0222 19.4662 17.1702 19.0902 17.1702 18.6102C17.1702 18.1782 17.0222 17.8302 16.7262 17.5662C16.4382 17.2942 16.0702 17.1582 15.6222 17.1582C15.3822 17.1582 15.1862 17.1902 15.0342 17.2542C14.8822 17.3182 14.7342 17.4062 14.5902 17.5182C14.5742 17.5262 14.5382 17.5502 14.4822 17.5902C14.4262 17.6302 14.3742 17.6582 14.3262 17.6742C14.2862 17.6902 14.2422 17.6982 14.1942 17.6982H13.0662C12.9942 17.6982 12.9302 17.6742 12.8742 17.6262C12.8262 17.5702 12.8022 17.5062 12.8022 17.4342L13.2102 13.3422C13.2182 13.2382 13.2542 13.1582 13.3182 13.1022C13.3902 13.0382 13.4742 13.0062 13.5702 13.0062H18.0822C18.1702 13.0062 18.2382 13.0342 18.2862 13.0902C18.3422 13.1382 18.3702 13.2062 18.3702 13.2942V14.1102C18.3702 14.1902 18.3422 14.2582 18.2862 14.3142C18.2382 14.3702 18.1702 14.3982 18.0822 14.3982H14.6142L14.4222 16.3422C14.6062 16.2222 14.8182 16.1262 15.0582 16.0542C15.2982 15.9742 15.6102 15.9342 15.9942 15.9342C16.5142 15.9342 16.9942 16.0462 17.4342 16.2702C17.8822 16.4862 18.2382 16.8022 18.5022 17.2182C18.7742 17.6262 18.9102 18.1022 18.9102 18.6462C18.9102 19.2302 18.7742 19.7422 18.5022 20.1822C18.2302 20.6142 17.8462 20.9502 17.3502 21.1902C16.8542 21.4223 16.2782 21.5383 15.6222 21.5383Z" fill="#1F2747"/>
<path d="M2.79712 16.2307C2.79712 22.1975 7.55179 27.0512 13.3968 27.0512C19.2418 27.0512 23.9965 22.1975 23.9965 16.2307C23.9965 10.8796 20.1685 6.43578 15.1634 5.57317V9.01711L10.7469 4.50858L15.1634 0V3.75079C21.1462 4.63046 25.7631 9.88364 25.7631 16.2307C25.7631 23.1916 20.2157 28.8546 13.3968 28.8546C6.57795 28.8546 1.03055 23.1916 1.03055 16.2307H2.79712Z" fill="#1F2747"/>
</svg>
