<svg width="19" height="19" viewBox="0 0 19 19" fill="none" xmlns="http://www.w3.org/2000/svg">
<g clip-path="url(#clip0)">
<path d="M18.5 8.70835C18.5 9.52311 17.8356 10.1875 17.0208 10.1875L13.9583 10.1875L13.9583 1.06844C14.1649 0.958077 14.3983 0.895845 14.6458 0.895845L17.0208 0.895845C17.8356 0.895845 18.5 1.56024 18.5 2.375L18.5 8.70835Z" stroke="black"/>
<path d="M1.20692 8.94916L0.884427 9.30201C0.608814 9.60357 0.468073 10.0072 0.506614 10.4304C0.573739 11.1581 1.24449 11.7707 2.07335 11.7707L6.96347 11.7707L7.65459 11.7707L7.43838 12.4271C7.19693 13.1601 6.83332 14.4415 6.83332 15.4373C6.83332 16.1561 7.141 16.8383 7.56196 17.3451C7.77114 17.597 7.99886 17.7937 8.21201 17.9243C8.43128 18.0587 8.6032 18.104 8.70832 18.104C9.23792 18.104 9.6509 17.8557 9.79163 17.7594L9.79163 15.1278L9.79163 15.018L9.83766 14.9183L12.1177 9.97904L12.1666 9.87297L12.1666 1.98682C11.6458 1.79132 11.0611 1.68735 10.6875 1.68735L3.42076 1.68735C2.77598 1.68735 2.23822 2.12176 2.1151 2.67813L1.20692 8.94916ZM1.20692 8.94916L0.868904 8.61114M1.20692 8.94916L0.868904 8.61114M0.868904 8.61114C0.634672 8.37691 0.499976 8.06032 0.499976 7.7186C0.499976 7.22716 0.780711 6.79418 1.20248 6.58186L1.64845 6.35736L1.42459 5.91107C1.3378 5.73806 1.29163 5.5465 1.29163 5.3436C1.29163 4.85167 1.57292 4.41853 1.99495 4.20608L2.44111 3.98148M0.868904 8.61114L2.44111 3.98148M2.44111 3.98148L2.21696 3.5351M2.44111 3.98148L2.21696 3.5351M2.21696 3.5351C2.088 3.2783 2.04849 2.98018 2.11506 2.67832L2.21696 3.5351Z" stroke="black"/>
</g>
<defs>
<clipPath id="clip0">
<rect width="19" height="19" fill="white" transform="translate(19 19) rotate(-180)"/>
</clipPath>
</defs>
</svg>
