<svg width="19" height="18" viewBox="0 0 19 18" fill="none" xmlns="http://www.w3.org/2000/svg">
<path d="M18.5 8.70835C18.5 9.52311 17.8356 10.1875 17.0208 10.1875L13.9583 10.1875L13.9583 1.06844C14.1649 0.958077 14.3983 0.895845 14.6458 0.895845L17.0208 0.895845C17.8356 0.895845 18.5 1.56024 18.5 2.375L18.5 8.70835Z" stroke="#1D2C56"/>
<path d="M1.20614 7.94918L0.884068 8.30157C0.608387 8.60321 0.467584 9.00691 0.506065 9.4302L1.20614 7.94918ZM1.20614 7.94918L0.868566 7.6116M1.20614 7.94918L0.868566 7.6116M0.868566 7.6116C0.634212 7.37725 0.499447 7.0605 0.499447 6.7186C0.499447 6.22691 0.780328 5.7937 1.20231 5.58128L1.64769 5.35707L1.42413 4.91137C1.3373 4.73826 1.2911 4.5466 1.2911 4.3436C1.2911 3.85142 1.57253 3.41805 1.99478 3.2055L2.44036 2.98119M0.868566 7.6116L2.44036 2.98119M7.65381 10.7713L7.43788 11.4269C7.19644 12.1599 6.83279 13.4414 6.83279 14.4373C6.83279 15.1563 7.14054 15.8386 7.56159 16.3456C7.7708 16.5975 7.99857 16.7943 8.21179 16.9249C8.43112 17.0593 8.60316 17.1047 8.70844 17.1047C9.23858 17.1047 9.6519 16.8559 9.7924 16.7597L9.7924 14.1278L9.7924 14.0181L9.83837 13.9185L12.1184 8.97932L12.1674 8.87311L12.1674 0.986374C11.6464 0.790737 11.0614 0.686701 10.6876 0.686701L3.42088 0.6867C2.77582 0.6867 2.23777 1.1213 2.11459 1.67799L7.65381 10.7713ZM7.65381 10.7713L6.9636 10.7713M7.65381 10.7713L6.9636 10.7713M6.9636 10.7713L2.07347 10.7713C1.24437 10.7713 0.573353 10.1586 0.506103 9.43063L6.9636 10.7713ZM2.44036 2.98119L2.2165 2.53539M2.44036 2.98119L2.2165 2.53539M2.2165 2.53539C2.08748 2.27846 2.04794 1.98018 2.11455 1.67818L2.2165 2.53539Z" stroke="#1D2C56" stroke-width="0.998698"/>
</svg>
