<svg width="24" height="18" viewBox="0 0 24 18" fill="none" xmlns="http://www.w3.org/2000/svg">
<g clip-path="url(#clip0)">
<path d="M3.97915 7.125C2.88825 7.125 2 8.01325 2 9.10415V15.4375C2 16.5284 2.88825 17.4167 3.97915 17.4167H6.35415C6.79987 17.4167 7.20993 17.2662 7.54165 17.0161V7.125H3.97915Z" fill="#1F2747"/>
<path d="M21.2083 10.8854C21.2083 10.4096 21.0199 9.96628 20.6929 9.63931C21.0626 9.23478 21.251 8.69246 21.1996 8.12803C21.1069 7.12181 20.2005 6.33331 19.1349 6.33331H14.2448C14.487 5.59784 14.8749 4.24965 14.8749 3.16665C14.8749 1.44953 13.4159 0 12.4999 0C11.6774 0 11.09 0.463125 11.0647 0.482125C10.9713 0.557346 10.9166 0.671346 10.9166 0.791654V3.47618L8.63663 8.4154L8.54163 8.46368V16.9488C9.18603 17.2528 10.0014 17.4167 10.5208 17.4167H17.7875C18.6496 17.4167 19.4041 16.8356 19.5814 16.0336C19.6724 15.6212 19.6194 15.2055 19.4381 14.8445C20.0232 14.55 20.4166 13.9476 20.4166 13.2604C20.4166 12.9802 20.3525 12.7118 20.2306 12.4687C20.8156 12.1742 21.2083 11.5718 21.2083 10.8854Z" fill="#1F2747"/>
</g>
<defs>
<clipPath id="clip0">
<rect width="23.2083" height="17.4167" fill="white"/>
</clipPath>
</defs>
</svg>
