<svg width="19" height="19" viewBox="0 0 19 19" fill="none" xmlns="http://www.w3.org/2000/svg">
<g clip-path="url(#clip0)">
<path d="M1.97915 8.3125C0.88825 8.3125 0 9.20075 0 10.2917V16.625C0 17.7159 0.88825 18.6042 1.97915 18.6042H4.35415C4.79987 18.6042 5.20993 18.4537 5.54165 18.2036V8.3125H1.97915Z" fill="#1F2747"/>
<path d="M19 11.2814C19 10.8056 18.8116 10.3623 18.4846 10.0353C18.8544 9.63077 19.0428 9.08846 18.9913 8.52402C18.8987 7.5178 17.9922 6.7293 16.9267 6.7293H12.0365C12.2788 5.99383 12.6667 4.64565 12.6667 3.56265C12.6667 1.84553 11.2077 0.395996 10.2917 0.395996C9.46915 0.395996 8.88171 0.859121 8.8564 0.878121C8.763 0.953342 8.70837 1.06734 8.70837 1.18765V3.87218L6.42837 8.8114L6.33337 8.85968V17.3448C6.97778 17.6488 7.79318 17.8126 8.31253 17.8126H15.5792C16.4414 17.8126 17.1958 17.2316 17.3731 16.4296C17.4642 16.0171 17.4112 15.6015 17.2299 15.2405C17.8149 14.946 18.2084 14.3436 18.2084 13.6564C18.2084 13.3761 18.1442 13.1078 18.0223 12.8647C18.6074 12.5702 19 11.9678 19 11.2814Z" fill="#1F2747"/>
</g>
<defs>
<clipPath id="clip0">
<rect width="19" height="19" fill="white"/>
</clipPath>
</defs>
</svg>
