<svg width="41" height="41" viewBox="0 0 41 41" fill="none" xmlns="http://www.w3.org/2000/svg">
<g clip-path="url(#clip0)">
<path d="M1.5 21.8283C1.5 20.343 2.71238 19.1306 4.19773 19.1306H10.2537V37.755C9.9376 37.8869 9.5943 37.9589 9.23503 37.9589H4.19773C2.71238 37.9589 1.5 36.7465 1.5 35.2612V21.8283Z" stroke="black" stroke-width="3"/>
<path d="M37.1305 21.3306L38.098 20.2721C38.5997 19.7232 38.8563 18.9893 38.7861 18.2162L37.1305 21.3306ZM37.1305 21.3306L38.1446 22.3447M37.1305 21.3306L38.1446 22.3447M38.1446 22.3447C38.5598 22.76 38.7983 23.32 38.7983 23.927C38.7983 24.7979 38.3013 25.5673 37.5502 25.9454L36.2123 26.6189L36.8839 27.9577C37.0371 28.2631 37.1192 28.6019 37.1192 28.9643C37.1192 29.836 36.6213 30.6059 35.8694 30.9843L34.5309 31.6581L35.2034 32.9973C35.4309 33.4503 35.5028 33.9794 35.3831 34.5224C35.1699 35.4868 34.2197 36.2795 33.0429 36.2795H17.6305C16.9581 36.2795 15.9119 36.1047 14.9327 35.774V19.4542L14.9961 19.3168L19.8319 8.8409L19.97 8.54174V8.21223V2.87236M38.1446 22.3447L19.97 2.87236M19.97 2.87236C20.3321 2.65831 21.0088 2.33936 21.8282 2.33936C21.9423 2.33936 22.2269 2.39568 22.6512 2.65567C23.0572 2.90442 23.5046 3.28825 23.9215 3.79019C24.7631 4.80351 25.3655 6.15427 25.3655 7.55573C25.3655 9.59121 24.6156 12.2503 24.1042 13.8028L23.4556 15.7721H25.5289H35.9008C37.4509 15.7721 38.6665 16.9172 38.7861 18.2161L19.97 2.87236Z" stroke="black" stroke-width="3"/>
</g>
<defs>
<clipPath id="clip0">
<rect width="40.2984" height="40.2984" fill="white"/>
</clipPath>
</defs>
</svg>
