<svg width="17" height="19" viewBox="0 0 17 19" fill="none" xmlns="http://www.w3.org/2000/svg">
<path d="M8.5 0C5.73762 0 3.49023 2.24738 3.49023 5.00977C3.49023 7.77215 5.73762 10.0195 8.5 10.0195C11.2624 10.0195 13.5098 7.77215 13.5098 5.00977C13.5098 2.24738 11.2624 0 8.5 0ZM8.5 8.90625C6.35148 8.90625 4.60352 7.15829 4.60352 5.00977C4.60352 2.86124 6.35148 1.11328 8.5 1.11328C10.6485 1.11328 12.3965 2.86124 12.3965 5.00977C12.3965 7.15829 10.6485 8.90625 8.5 8.90625Z" fill="black"/>
<path d="M10.0524 11.1699H6.94757C4.37952 11.1699 1.84514 12.3556 0.150391 14.8979V19H16.8496V14.8979C15.1573 12.3593 12.6236 11.1699 10.0524 11.1699ZM15.7364 17.8867H15.7363H1.26367V15.2385C2.56365 13.3847 4.67595 12.2832 6.9476 12.2832H10.0524C12.3241 12.2832 14.4363 13.3847 15.7364 15.2385V17.8867Z" fill="black"/>
</svg>
