<svg width="18" height="18" viewBox="0 0 18 18" fill="none" xmlns="http://www.w3.org/2000/svg">
<path d="M15.6498 0.768422C14.6252 -0.256141 12.9642 -0.256141 11.9396 0.768422L1.53865 11.1694C1.46737 11.2406 1.4159 11.329 1.38903 11.426L0.0212739 16.3639C-0.0349757 16.5664 0.0221848 16.7832 0.170666 16.9319C0.319374 17.0804 0.536175 17.1375 0.738628 17.0815L5.67653 15.7135C5.77354 15.6866 5.8619 15.6352 5.93318 15.5639L16.3339 5.16273C17.3569 4.13748 17.3569 2.47777 16.3339 1.45253L15.6498 0.768422ZM2.80893 11.5483L11.3213 3.03572L14.0666 5.78102L5.55401 14.2936L2.80893 11.5483ZM2.26056 12.6487L4.45384 14.8422L1.42 15.6828L2.26056 12.6487ZM15.5095 4.33834L14.8912 4.95663L12.1457 2.2111L12.7642 1.59281C13.3333 1.02371 14.2561 1.02371 14.8252 1.59281L15.5095 2.27691C16.0777 2.8467 16.0777 3.76878 15.5095 4.33834Z" fill="black"/>
</svg>
