<svg width="279" height="526" viewBox="0 0 279 526" fill="none" xmlns="http://www.w3.org/2000/svg">
<path opacity="0.4" d="M194 407L197.464 405L199.464 408.464L196 410.464L194 407Z" fill="#1E61B9"/>
<path d="M66 452L69.4641 450L71.4641 453.464L68 455.464L66 452Z" fill="#1E61B9"/>
<path d="M252 76L255.464 74L257.464 77.4641L254 79.4641L252 76Z" fill="#1E61B9"/>
<path d="M150 2L153.464 0L155.464 3.4641L152 5.4641L150 2Z" fill="#1E61B9"/>
<path d="M273 244L276.464 242L278.464 245.464L275 247.464L273 244Z" fill="#1E61B9"/>
<path d="M37 175L40.4641 173L42.4641 176.464L39 178.464L37 175Z" fill="#1E61B9"/>
<path d="M9 95L12.4641 93L14.4641 96.4641L11 98.4641L9 95Z" fill="#1E61B9"/>
<path d="M138 368L141.464 366L143.464 369.464L140 371.464L138 368Z" fill="#1E61B9"/>
<path opacity="0.2" d="M249 174L250.732 173L251.732 174.732L250 175.732L249 174Z" fill="#1E61B9"/>
<path d="M259 524L260.732 523L261.732 524.732L260 525.732L259 524Z" fill="#1E61B9"/>
<path d="M0 370L1.73205 369L2.73205 370.732L1 371.732L0 370Z" fill="#1E61B9"/>
<path opacity="0.4" d="M155 328L156.732 327L157.732 328.732L156 329.732L155 328Z" fill="#1E61B9"/>
<path d="M38 62L39.7321 61L40.7321 62.7321L39 63.7321L38 62Z" fill="#1E61B9"/>
<path opacity="0.4" fill-rule="evenodd" clip-rule="evenodd" d="M252 25.0003L272 16.0003L272.616 17.3682L252.616 26.3682L252 25.0003Z" fill="#1E61B9"/>
<path opacity="0.4" fill-rule="evenodd" clip-rule="evenodd" d="M2.80031 510L21.3514 521.699L20.5513 522.967L2.00019 511.269L2.80031 510Z" fill="#1E61B9"/>
<path opacity="0.4" fill-rule="evenodd" clip-rule="evenodd" d="M143.8 118L154.894 124.996L154.094 126.265L143 119.269L143.8 118Z" fill="#1E61B9"/>
<path opacity="0.4" fill-rule="evenodd" clip-rule="evenodd" d="M260.8 348L271.894 354.996L271.094 356.265L260 349.269L260.8 348Z" fill="#1E61B9"/>
</svg>
