<svg width="108" height="89" viewBox="0 0 108 89" fill="none" xmlns="http://www.w3.org/2000/svg">
<path d="M19 17.3567C22.138 14.2466 25.3762 11.0361 28.6477 7.82557C31.0179 5.48459 33.3214 3.07673 35.725 0.735742C36.1256 0.33443 36.8266 0.0334447 37.3941 0.0334447C47.4758 2.04392e-06 57.5909 0 67.6726 0C68.1734 0 68.8077 0.167213 69.1415 0.501639C74.6831 6.01967 80.2247 11.5712 85.7329 17.1226C85.8665 17.2564 85.9666 17.3902 86 17.4571C74.8166 28.6603 63.6667 39.8636 52.5501 51C41.4669 39.8636 30.2835 28.6938 19 17.3567ZM52.4833 43.6092C61.1629 34.9141 69.8759 26.1856 78.6223 17.4571C78.5889 17.3902 78.4888 17.2564 78.3553 17.1561C74.9502 13.7115 71.5451 10.3003 68.14 6.85574C67.5725 6.28721 67.2053 6.55475 66.7713 7.02295C63.3996 10.4341 60.0279 13.8118 56.6228 17.2229C55.2875 18.5607 53.9188 19.8984 52.5167 21.2695C52.0827 20.8348 51.7489 20.5672 51.4484 20.2662C47.1086 15.9187 42.7354 11.5711 38.3956 7.19016C37.728 6.52131 37.3274 6.42098 36.6597 7.15672C35.2242 8.69508 33.722 10.1666 32.2197 11.6046C30.1834 13.5443 28.147 15.4839 26.1774 17.3567C35.1908 26.2525 43.8705 34.9475 52.4833 43.6092Z" fill="white"/>
<path d="M0.630852 88.7422C0.455616 88.7422 0.306664 88.682 0.183999 88.5617C0.0613328 88.4414 0 88.2953 0 88.1235V71.3406C0 71.1515 0.052571 70.9968 0.157713 70.8765C0.280379 70.7562 0.438092 70.6961 0.630852 70.6961H7.67537C9.79574 70.6961 11.4605 71.1859 12.6696 72.1655C13.8788 73.1452 14.4833 74.5717 14.4833 76.445C14.4833 78.3012 13.8788 79.7105 12.6696 80.673C11.4605 81.6183 9.79574 82.0909 7.67537 82.0909H3.8114V88.1235C3.8114 88.3125 3.75007 88.4672 3.6274 88.5875C3.50474 88.6906 3.34702 88.7422 3.15426 88.7422H0.630852ZM7.54394 79.2035C8.56032 79.2035 9.33136 78.9715 9.85707 78.5075C10.4003 78.0262 10.6719 77.3302 10.6719 76.4193C10.6719 75.5256 10.4091 74.8295 9.88335 74.3311C9.37517 73.8327 8.59536 73.5834 7.54394 73.5834H3.75883V79.2035H7.54394Z" fill="white"/>
<path d="M20.7239 89C19.8302 89 19.0065 88.8281 18.253 88.4844C17.517 88.1235 16.93 87.6422 16.4919 87.0407C16.0713 86.4392 15.861 85.7775 15.861 85.0556C15.861 83.8869 16.3429 82.9417 17.3068 82.2198C18.2706 81.498 19.5936 81.0081 21.2759 80.7503L24.877 80.2347V79.6934C24.877 78.9543 24.6842 78.3957 24.2987 78.0176C23.9132 77.6395 23.2998 77.4505 22.4587 77.4505C21.8804 77.4505 21.4161 77.5536 21.0656 77.7598C20.7151 77.9661 20.426 78.1809 20.1982 78.4043C19.9879 78.6106 19.8477 78.7481 19.7776 78.8168C19.7075 79.0231 19.5761 79.1262 19.3833 79.1262H17.333C17.1753 79.1262 17.0351 79.0746 16.9125 78.9715C16.8073 78.8684 16.7548 78.7309 16.7548 78.559C16.7723 78.1294 16.9826 77.6481 17.3856 77.1153C17.8062 76.5654 18.4458 76.0927 19.3045 75.6974C20.1631 75.2849 21.2233 75.0787 22.485 75.0787C24.5528 75.0787 26.0598 75.5341 27.0061 76.445C27.9524 77.3559 28.4255 78.5504 28.4255 80.0285V88.1235C28.4255 88.2953 28.3642 88.4414 28.2415 88.5617C28.1364 88.682 27.9874 88.7422 27.7947 88.7422H25.613C25.4377 88.7422 25.2888 88.682 25.1661 88.5617C25.0435 88.4414 24.9821 88.2953 24.9821 88.1235V87.118C24.5966 87.668 24.0534 88.1235 23.3524 88.4844C22.6515 88.8281 21.7753 89 20.7239 89ZM21.6176 86.5251C22.5814 86.5251 23.3699 86.2157 23.9833 85.597C24.5966 84.9783 24.9033 84.0846 24.9033 82.9159V82.4003L22.2747 82.8128C20.2595 83.1221 19.2519 83.7838 19.2519 84.7978C19.2519 85.3478 19.4797 85.7775 19.9353 86.0868C20.4084 86.379 20.9692 86.5251 21.6176 86.5251Z" fill="white"/>
<path d="M36.8702 89C35.258 89 33.9875 88.4844 33.0588 87.4532C32.13 86.422 31.6656 85.0041 31.6656 83.1995V75.9552C31.6656 75.7662 31.727 75.6201 31.8496 75.517C31.9723 75.3967 32.1212 75.3365 32.2965 75.3365H34.6622C34.8374 75.3365 34.9864 75.3967 35.109 75.517C35.2317 75.6373 35.293 75.7834 35.293 75.9552V83.0448C35.293 85.1588 36.2305 86.2157 38.1056 86.2157C39.0168 86.2157 39.7353 85.9322 40.261 85.365C40.8042 84.7978 41.0758 84.0244 41.0758 83.0448V75.9552C41.0758 75.7662 41.1372 75.6201 41.2598 75.517C41.3825 75.3967 41.5315 75.3365 41.7067 75.3365H44.0461C44.2389 75.3365 44.3878 75.3967 44.493 75.517C44.6156 75.6201 44.677 75.7662 44.677 75.9552V88.1235C44.677 88.2953 44.6156 88.4414 44.493 88.5617C44.3878 88.682 44.2389 88.7422 44.0461 88.7422H41.8644C41.6892 88.7422 41.5402 88.682 41.4175 88.5617C41.2949 88.4414 41.2336 88.2953 41.2336 88.1235V87.0665C40.2697 88.3555 38.8153 89 36.8702 89Z" fill="white"/>
<path d="M53.2216 89C51.4517 89 50.0936 88.45 49.1473 87.3501C48.2011 86.2329 47.6841 84.7463 47.5965 82.8901L47.5702 82.0393L47.5965 81.1886C47.6666 79.3668 48.1748 77.8973 49.1211 76.7802C50.0849 75.6459 51.4517 75.0787 53.2216 75.0787C54.9039 75.0787 56.2444 75.6459 57.2433 76.7802V71.057C57.2433 70.8679 57.3046 70.7218 57.4273 70.6187C57.5499 70.4984 57.6989 70.4383 57.8741 70.4383H60.161C60.3537 70.4383 60.5027 70.4984 60.6078 70.6187C60.7305 70.7218 60.7918 70.8679 60.7918 71.057V88.1235C60.7918 88.2953 60.7305 88.4414 60.6078 88.5617C60.5027 88.682 60.3537 88.7422 60.161 88.7422H58.0318C57.8566 88.7422 57.7077 88.682 57.585 88.5617C57.4623 88.4414 57.401 88.2953 57.401 88.1235V87.1696C56.4372 88.3899 55.0441 89 53.2216 89ZM54.2204 86.2157C55.2193 86.2157 55.9553 85.9064 56.4284 85.2877C56.9191 84.6517 57.1907 83.8697 57.2433 82.9417C57.2608 82.7354 57.2696 82.4089 57.2696 81.962C57.2696 81.498 57.2608 81.1628 57.2433 80.9566C57.2082 80.0972 56.9366 79.3668 56.4284 78.7653C55.9202 78.1637 55.1842 77.863 54.2204 77.863C52.3454 77.863 51.3466 78.9973 51.2239 81.2659L51.1976 82.0393L51.2239 82.8128C51.3466 85.0814 52.3454 86.2157 54.2204 86.2157Z" fill="white"/>
<path d="M64.8203 73.1452C64.645 73.1452 64.4961 73.085 64.3734 72.9647C64.2508 72.8444 64.1894 72.6983 64.1894 72.5265V70.6445C64.1894 70.4555 64.2508 70.3008 64.3734 70.1805C64.4961 70.0602 64.645 70 64.8203 70H67.2385C67.4313 70 67.589 70.0602 67.7117 70.1805C67.8344 70.3008 67.8957 70.4555 67.8957 70.6445V72.5265C67.8957 72.6983 67.8256 72.8444 67.6854 72.9647C67.5627 73.085 67.4138 73.1452 67.2385 73.1452H64.8203ZM64.9254 88.7422C64.7502 88.7422 64.6012 88.682 64.4786 88.5617C64.3559 88.4414 64.2946 88.2953 64.2946 88.1235V75.9552C64.2946 75.7662 64.3559 75.6201 64.4786 75.517C64.6012 75.3967 64.7502 75.3365 64.9254 75.3365H67.1597C67.3349 75.3365 67.4839 75.3967 67.6066 75.517C67.7292 75.6373 67.7905 75.7834 67.7905 75.9552V88.1235C67.7905 88.2953 67.7292 88.4414 67.6066 88.5617C67.4839 88.682 67.3349 88.7422 67.1597 88.7422H64.9254Z" fill="white"/>
<path d="M76.3241 89C74.7119 89 73.4415 88.4844 72.5127 87.4532C71.5839 86.422 71.1196 85.0041 71.1196 83.1995V75.9552C71.1196 75.7662 71.1809 75.6201 71.3036 75.517C71.4262 75.3967 71.5752 75.3365 71.7504 75.3365H74.1161C74.2914 75.3365 74.4403 75.3967 74.563 75.517C74.6856 75.6373 74.747 75.7834 74.747 75.9552V83.0448C74.747 85.1588 75.6845 86.2157 77.5595 86.2157C78.4708 86.2157 79.1892 85.9322 79.7149 85.365C80.2582 84.7978 80.5298 84.0244 80.5298 83.0448V75.9552C80.5298 75.7662 80.5911 75.6201 80.7138 75.517C80.8364 75.3967 80.9854 75.3365 81.1606 75.3365H83.5C83.6928 75.3365 83.8418 75.3967 83.9469 75.517C84.0696 75.6201 84.1309 75.7662 84.1309 75.9552V88.1235C84.1309 88.2953 84.0696 88.4414 83.9469 88.5617C83.8418 88.682 83.6928 88.7422 83.5 88.7422H81.3183C81.1431 88.7422 80.9942 88.682 80.8715 88.5617C80.7488 88.4414 80.6875 88.2953 80.6875 88.1235V87.0665C79.7237 88.3555 78.2692 89 76.3241 89Z" fill="white"/>
<path d="M88.2333 88.7422C88.0581 88.7422 87.9091 88.682 87.7864 88.5617C87.6638 88.4414 87.6024 88.2953 87.6024 88.1235V75.9552C87.6024 75.7662 87.6638 75.6201 87.7864 75.517C87.9091 75.3967 88.0581 75.3365 88.2333 75.3365H90.3098C90.5026 75.3365 90.6516 75.3967 90.7567 75.517C90.8794 75.6201 90.9407 75.7662 90.9407 75.9552V76.8318C91.887 75.663 93.1574 75.0787 94.7521 75.0787C96.6972 75.0787 98.0553 75.8435 98.8263 77.3731C99.2469 76.6857 99.8427 76.1357 100.614 75.7232C101.385 75.2935 102.217 75.0787 103.111 75.0787C104.548 75.0787 105.722 75.5599 106.633 76.5224C107.544 77.4848 108 78.8856 108 80.7246V88.1235C108 88.2953 107.939 88.4414 107.816 88.5617C107.711 88.682 107.562 88.7422 107.369 88.7422H105.187C105.012 88.7422 104.863 88.682 104.741 88.5617C104.618 88.4414 104.557 88.2953 104.557 88.1235V80.9308C104.557 79.848 104.32 79.066 103.847 78.5848C103.391 78.1036 102.787 77.863 102.033 77.863C101.35 77.863 100.763 78.1122 100.272 78.6106C99.7989 79.0918 99.5623 79.8652 99.5623 80.9308V88.1235C99.5623 88.2953 99.501 88.4414 99.3783 88.5617C99.2732 88.682 99.1243 88.7422 98.9315 88.7422H96.7235C96.5483 88.7422 96.3993 88.682 96.2767 88.5617C96.154 88.4414 96.0927 88.2953 96.0927 88.1235V80.9308C96.0927 79.8652 95.8561 79.0918 95.383 78.6106C94.9098 78.1122 94.3052 77.863 93.5692 77.863C92.8858 77.863 92.2988 78.1122 91.8081 78.6106C91.335 79.0918 91.0984 79.8652 91.0984 80.9308V88.1235C91.0984 88.2953 91.0371 88.4414 90.9144 88.5617C90.8093 88.682 90.6603 88.7422 90.4676 88.7422H88.2333Z" fill="white"/>
</svg>
